<?xml version="1.0" standalone="no"?>
<!DOCTYPE svg PUBLIC "-//W3C//DTD SVG 20010904//EN"
 "http://www.w3.org/TR/2001/REC-SVG-20010904/DTD/svg10.dtd">
<svg version="1.0" xmlns="http://www.w3.org/2000/svg"
 width="700.000000pt" height="700.000000pt" viewBox="0 0 700.000000 700.000000"
 preserveAspectRatio="xMidYMid meet">
<metadata>
Created by potrace 1.14, written by Peter Selinger 2001-2017
</metadata>
<g transform="translate(0.000000,700.000000) scale(0.100000,-0.100000)"
fill="#000000" stroke="none">
<path d="M6456 6303 c-2 -2 -30 -5 -62 -8 -107 -9 -138 -13 -232 -34 -92 -21
-289 -81 -347 -106 -27 -12 -62 -25 -75 -30 -12 -4 -61 -26 -135 -60 -84 -38
-96 -39 -205 -15 -25 6 -67 12 -95 15 -27 3 -61 7 -75 10 -80 17 -515 25 -685
12 -169 -13 -263 -23 -297 -33 -10 -3 -50 4 -90 14 -40 11 -89 23 -108 26 -37
6 -67 12 -113 22 -38 8 -112 17 -247 30 -44 4 -331 4 -385 0 -37 -3 -134 -13
-195 -21 -101 -13 -433 -94 -465 -113 -5 -4 -15 -7 -22 -8 -45 -7 -307 -125
-428 -192 -119 -67 -375 -246 -375 -263 0 -4 -8 -10 -18 -13 -40 -13 -300
-279 -399 -410 -25 -33 -49 -64 -54 -70 -20 -24 -79 -116 -136 -211 -122 -204
-232 -471 -283 -685 -25 -106 -37 -163 -46 -220 -3 -19 -7 -46 -10 -60 -2 -14
-6 -52 -9 -85 -4 -33 -8 -76 -10 -95 -5 -42 -6 -328 -1 -385 2 -22 7 -69 11
-105 4 -36 9 -76 10 -90 1 -14 5 -34 8 -45 3 -11 9 -40 12 -65 3 -25 11 -69
19 -98 8 -29 15 -56 15 -60 10 -64 81 -271 138 -405 36 -82 54 -136 51 -152
-3 -14 -1 -25 3 -25 16 0 64 -54 88 -100 14 -25 39 -67 58 -95 18 -27 33 -52
33 -56 0 -3 -28 1 -63 8 -100 22 -161 32 -302 50 -49 6 -396 9 -470 3 -50 -3
-210 -44 -259 -65 -185 -82 -198 -258 -26 -334 48 -21 69 -26 165 -37 155 -18
303 -8 535 37 30 6 91 20 135 31 44 11 87 21 96 23 9 2 56 17 104 34 88 31 88
31 149 15 34 -9 66 -17 71 -18 6 -1 15 -4 20 -7 6 -4 22 -9 36 -12 14 -4 75
-55 135 -115 91 -91 171 -163 219 -200 6 -4 31 -24 56 -45 25 -20 51 -37 57
-37 6 0 12 -4 14 -8 12 -30 374 -233 508 -286 57 -22 205 -77 205 -76 0 1 7
-1 15 -4 131 -42 295 -78 465 -102 171 -23 476 -23 655 1 45 6 134 18 140 20
11 3 96 18 115 21 21 3 129 32 155 42 18 6 29 9 55 16 103 25 420 163 520 227
17 10 39 23 50 29 46 23 176 113 273 188 127 98 245 209 352 332 30 34 60 68
65 74 37 39 150 198 220 311 115 182 274 564 301 723 3 15 9 41 14 57 11 37
29 134 36 200 4 33 16 65 37 95 174 251 217 321 300 492 31 65 57 120 57 124
0 3 6 20 14 37 25 57 99 284 110 337 24 123 28 144 42 220 3 14 7 95 9 180 3
132 0 173 -19 275 -13 66 -26 129 -29 140 -13 50 -63 176 -92 236 -41 80 -153
249 -166 249 -5 0 -9 5 -9 11 0 16 -163 175 -235 230 -78 60 -164 114 -236
150 -33 16 -59 32 -59 35 0 16 255 120 345 140 83 19 238 21 323 5 55 -10 153
-51 176 -73 8 -7 22 -20 32 -29 11 -9 25 -25 33 -37 8 -11 20 -18 28 -15 8 3
32 -3 55 -13 l40 -18 19 25 c78 99 62 232 -36 301 -51 36 -123 67 -170 74 -92
13 -223 22 -229 17z m-1420 -407 c51 -4 116 -13 145 -20 44 -11 50 -15 34 -21
-11 -5 -25 -14 -31 -19 -7 -6 -31 -23 -55 -38 -73 -46 -84 -53 -89 -58 -31
-33 -90 -45 -90 -19 0 5 -5 9 -11 9 -6 0 -23 8 -37 19 -38 27 -94 58 -190 107
-45 23 -78 44 -72 46 19 6 300 2 396 -6z m611 -178 c77 -50 140 -112 193 -194
119 -182 162 -402 136 -689 -5 -44 -10 -83 -12 -87 -2 -4 -7 -24 -10 -46 -3
-22 -11 -61 -18 -88 l-13 -49 -27 59 c-14 32 -26 62 -26 66 0 5 -3 10 -7 12
-5 2 -19 26 -33 53 -13 28 -37 69 -52 92 -15 23 -28 45 -28 48 0 6 -90 140
-117 175 -6 8 -42 53 -79 100 -36 47 -111 130 -165 184 -55 55 -99 103 -99
107 0 18 281 289 300 289 3 0 29 -15 57 -32z"/>
</g>
</svg>
